<svg width="456" height="117" viewBox="0 0 456 117" fill="none" xmlns="http://www.w3.org/2000/svg">
<rect width="456" height="117" rx="58.5" fill="#1573F7"/>
<path d="M67.3529 62C66.6057 62 66 62.6057 66 63.3529V64.0485L66.0017 64.0823C66.1425 66.8981 68.2669 69.718 71.8815 69.996L71.9333 70H72.6471C73.3943 70 74 69.3943 74 68.6471C74 67.8998 73.3943 67.2941 72.6471 67.2941H72.0406C69.9629 67.1118 68.7986 65.5502 68.7059 63.9781V63.3529C68.7059 62.6057 68.1002 62 67.3529 62Z" fill="white"/>
<path fill-rule="evenodd" clip-rule="evenodd" d="M71.0634 40.1384C64.0705 40.4463 58.6644 46.1865 58.3134 53.1773C58.1373 56.6837 58 59.8188 58 62.7331C58 65.4514 58.1195 68.173 58.2784 71.3011C58.6319 78.2573 64.029 83.9458 70.9871 84.2577C72.0409 84.305 73.0622 84.3331 74 84.3331C74.9673 84.3331 76.0231 84.3032 77.1119 84.2532C84.0248 83.9361 89.4018 78.3147 89.7426 71.4029C89.891 68.3938 90 65.7047 90 62.7331C90 59.4141 89.8787 56.3523 89.7178 53.0449C89.3807 46.1119 83.9997 40.4589 77.0656 40.1442C75.9932 40.0955 74.9536 40.0664 74 40.0664C73.0848 40.0664 72.0901 40.0932 71.0634 40.1384ZM62.2022 53.9791C62.4673 48.6507 66.5132 44.2985 71.7247 44.0583C72.5206 44.0217 73.292 43.9998 74.0001 43.9998C74.7434 43.9998 75.5566 44.0239 76.3946 44.0639C81.5515 44.3103 85.5709 48.5807 85.8204 53.8545C85.8441 54.3571 85.8665 54.7856 85.8867 55.1739C85.9552 56.4903 86.0001 57.3528 86.0001 59.141C86.0001 60.9051 85.9511 61.909 85.8774 63.4189C85.8655 63.6615 85.853 63.9174 85.84 64.1913C85.5903 69.4447 81.5751 73.6851 76.4381 73.9336C75.5848 73.9749 74.7563 73.9998 74.0001 73.9998C73.2713 73.9998 72.4753 73.9766 71.6547 73.938C66.4752 73.6942 62.438 69.3905 62.1747 64.0946C62.1575 63.7489 62.1412 63.4323 62.1258 63.1358L62.1257 63.1335C62.0504 61.6758 62.0001 60.7031 62.0001 59.141C62.0001 57.6406 62.0465 56.8165 62.1169 55.5653C62.1425 55.1107 62.1713 54.5994 62.2022 53.9791Z" fill="white"/>
<path fill-rule="evenodd" clip-rule="evenodd" d="M56.8346 24H91.1654C98.7004 24 100.648 24.7818 102.53 25.7882C104.561 26.8746 106.125 28.439 107.212 30.4705C108.218 32.3522 109 34.2996 109 41.8346V43.0213C109 43.567 108.563 44.0112 108.017 44.0343C107.85 44.0414 107.68 44.0495 107.509 44.0585C102.949 44.2987 99.4088 48.6509 99.1768 53.9793C99.15 54.5957 99.1249 55.1051 99.1026 55.5575L99.1023 55.563L99.1022 55.5655C99.0406 56.8167 99 57.6408 99 59.1412C99 60.7033 99.044 61.6764 99.1099 63.1341C99.1234 63.4312 99.1377 63.7483 99.1528 64.0948C99.3831 69.3907 102.916 73.6944 107.448 73.9382C107.639 73.9485 107.83 73.9577 108.017 73.9657C108.563 73.9888 109 74.433 109 74.9787V76.1654C109 83.7004 108.218 85.6478 107.212 87.5295C106.125 89.561 104.561 91.1254 102.53 92.2118C100.648 93.2182 98.7004 94 91.1654 94H56.8346C49.2996 94 47.3522 93.2182 45.4705 92.2118C43.439 91.1254 41.8746 89.561 40.7882 87.5295C39.7818 85.6478 39 83.7004 39 76.1654V74.9787C39 74.433 39.4375 73.9888 39.9826 73.9657C40.1969 73.9566 40.4142 73.9459 40.6333 73.9338C45.1281 73.6853 48.6414 69.4449 48.8599 64.1915C48.8711 63.9219 48.8819 63.6699 48.8921 63.4308L48.8926 63.4187C48.9571 61.9088 49 60.9053 49 59.1412C49 57.353 48.9607 56.4897 48.9007 55.1733C48.883 54.785 48.8635 54.3573 48.8427 53.8547C48.6245 48.5809 45.1075 44.3105 40.5952 44.0641C40.389 44.0529 40.1845 44.0429 39.9826 44.0343C39.4375 44.0112 39 43.567 39 43.0213V41.8346C39 34.2996 39.7818 32.3522 40.7882 30.4705C41.8746 28.439 43.439 26.8746 45.4705 25.7882C47.3522 24.7818 49.2996 24 56.8346 24ZM70.911 36.6752C62.0083 37.0671 55.2855 44.3526 54.8511 53.0036C54.6751 56.5098 54.5334 59.7227 54.5334 62.7332C54.5334 65.5469 54.6571 68.3447 54.8163 71.4771C55.2547 80.1063 61.9801 87.3241 70.832 87.721C71.9213 87.7698 72.9965 87.7998 74.0001 87.7998C75.0349 87.7998 76.1461 87.7679 77.2708 87.7163C86.0583 87.3132 92.7808 80.1796 93.2051 71.5737C93.3543 68.5484 93.4668 65.7915 93.4668 62.7332C93.4668 59.3292 93.3422 56.201 93.1805 52.8766C92.7613 44.2568 86.0418 37.0814 77.2229 36.6812C76.1147 36.6309 75.0203 36.5999 74.0001 36.5999C73.0206 36.5999 71.9731 36.6284 70.911 36.6752Z" fill="white"/>
<path d="M345.225 38.83C343.72 40.3156 341.466 40.9587 338.5 40.9587C335.542 40.9587 333.227 40.3156 331.766 38.83C330.261 37.3988 329.574 35.1976 329.574 32.3623V32H334.389V32.3623C334.389 33.8841 334.724 34.8624 335.287 35.3969L335.305 35.415C335.877 36.0038 336.933 36.2937 338.491 36.2937C340.049 36.2937 341.053 36.0038 341.625 35.415L341.642 35.3969C342.223 34.8624 342.602 33.8751 342.602 32.3623V32H347.417V32.3623C347.417 35.2067 346.669 37.4078 345.225 38.83Z" fill="white"/>
<path fill-rule="evenodd" clip-rule="evenodd" d="M313.772 67.4451C314.238 66.802 314.555 65.9958 314.775 64.9269L314.846 64.628H320.444L320.382 65.0446C320.101 66.8744 319.581 68.4415 318.754 69.7097C317.944 71.0232 316.949 72.0558 315.717 72.8348C314.493 73.6138 313.103 74.1483 311.553 74.5016C309.942 74.8548 308.226 74.9726 306.351 74.9726C304.018 74.9726 301.959 74.7371 300.119 74.2026C298.27 73.7316 296.642 72.8348 295.357 71.6301C294.071 70.4162 293.086 68.7948 292.39 66.7838C291.695 64.8182 291.352 62.3453 291.352 59.4194C291.352 56.4301 291.686 53.8938 292.381 51.8738C293.068 49.8628 294.054 48.187 295.339 46.9189L295.348 46.9098C296.624 45.7141 298.2 44.8173 300.048 44.2829H300.057C301.888 43.8119 303.948 43.522 306.228 43.522C310.567 43.522 314.036 44.6452 316.597 46.9189C319.115 49.2197 320.373 52.689 320.373 57.2816V61.53H296.994C297.029 63.1967 297.293 64.5827 297.698 65.6153C298.129 66.7204 298.772 67.5991 299.564 68.2513C300.357 68.9126 301.316 69.3474 302.452 69.5738C303.613 69.8003 304.89 69.918 306.333 69.918C307.451 69.918 308.446 69.8637 309.432 69.6916H309.45C310.356 69.5738 311.166 69.3021 311.923 68.9126L311.932 68.9035H311.941C312.662 68.5865 313.235 68.1064 313.772 67.4451ZM299.784 50.2161C298.992 50.814 298.35 51.6383 297.865 52.7434C297.416 53.767 297.144 55.0533 297.056 56.7019H314.643C314.617 55.162 314.397 53.93 314 52.9065C313.569 51.7923 313.032 50.977 312.302 50.3248C311.562 49.7179 310.708 49.2831 309.687 49.0023C308.64 48.7758 307.478 48.6037 306.219 48.6037C304.89 48.6037 303.728 48.7215 302.628 48.9479C301.554 49.1654 300.585 49.6092 299.784 50.2161Z" fill="white"/>
<path d="M360.054 64.32C360.16 63.1152 360.274 61.5662 360.274 59.6096V44.4097H383.848V74.1211H378.187V49.4824H365.767V60.3071C365.767 64.9722 365.089 68.4687 363.804 70.697C362.484 73.0341 360.327 74.1211 357.413 74.1211H356.164V68.7586H356.516C357.22 68.7586 357.774 68.6408 358.206 68.3962L358.223 68.3872L358.232 68.3781C358.637 68.1969 359.042 67.7531 359.359 67.1009C359.667 66.4577 359.887 65.5791 360.054 64.32Z" fill="white"/>
<path d="M282.26 64.2386C282.039 65.4162 281.661 66.3492 281.194 67.0557C280.657 67.8257 280.077 68.3692 279.39 68.804C278.642 69.2388 277.841 69.5196 276.916 69.6826C275.931 69.8548 274.936 69.9091 273.818 69.9091C272.313 69.9091 270.992 69.7913 269.839 69.5105C268.651 69.2297 267.7 68.7406 266.97 67.9887L266.961 67.9797C266.169 67.2188 265.579 66.1771 265.139 64.8274C264.707 63.4867 264.478 61.6751 264.478 59.4376C264.478 57.1459 264.698 55.3252 265.139 53.8668C265.579 52.4537 266.169 51.3576 266.961 50.6058L266.97 50.5967C267.7 49.8449 268.651 49.3466 269.839 49.0749C270.992 48.7941 272.321 48.622 273.818 48.622C274.857 48.622 275.851 48.7307 276.749 48.8484C277.612 49.0205 278.413 49.2923 279.161 49.7271C279.848 50.1619 280.437 50.7145 280.974 51.4301C281.45 52.1366 281.828 53.0153 282.039 54.1295L282.092 54.4193H287.761L287.682 53.9936C287.339 52.0551 286.819 50.3793 286.001 49.0477C285.191 47.7343 284.196 46.6563 283.034 45.8139L283.025 45.8048C281.863 45.0258 280.464 44.428 278.915 44.0747C277.312 43.7214 275.649 43.5493 273.827 43.5493C271.485 43.5493 269.434 43.8392 267.603 44.3102H267.594C265.746 44.8446 264.118 45.7414 262.832 46.9371L262.824 46.9462C261.538 48.2144 260.552 49.8901 259.866 51.9011C259.17 53.9211 258.836 56.4575 258.836 59.4467C258.836 62.3726 259.179 64.8455 259.866 66.8111C260.552 68.8221 261.547 70.4435 262.832 71.6574C264.118 72.8621 265.746 73.7589 267.594 74.2299C269.434 74.7644 271.494 74.9999 273.827 74.9999C275.71 74.9999 277.427 74.8278 279.029 74.4745C280.587 74.1212 281.978 73.5234 283.201 72.681C284.434 71.8385 285.42 70.7606 286.238 69.3837C287.057 68.0521 287.576 66.3763 287.867 64.3744L287.928 63.9578H282.33L282.26 64.2386Z" fill="white"/>
<path d="M411.329 64.2386L411.382 63.9396V63.9578H416.998L416.936 64.3744C416.646 66.3763 416.127 68.0521 415.308 69.3837C414.489 70.7606 413.503 71.8385 412.271 72.681C411.047 73.5234 409.657 74.1212 408.099 74.4745C406.497 74.8278 404.78 74.9999 402.896 74.9999C400.564 74.9999 398.504 74.7644 396.664 74.2299C394.816 73.7589 393.187 72.8621 391.902 71.6574C390.617 70.4435 389.631 68.8221 388.936 66.8111C388.249 64.8455 387.906 62.3726 387.906 59.4467C387.906 56.4575 388.24 53.9211 388.936 51.9011C389.622 49.8901 390.608 48.2144 391.893 46.9462L391.902 46.9371C393.187 45.7414 394.816 44.8446 396.664 44.3102H396.673C398.504 43.8392 400.555 43.5493 402.896 43.5493C404.718 43.5493 406.382 43.7214 407.984 44.0747C409.542 44.428 410.933 45.0258 412.095 45.8048L412.104 45.8139C413.266 46.6563 414.26 47.7343 415.07 49.0477C415.889 50.3793 416.408 52.0551 416.752 53.9936L416.831 54.4193H411.162L411.109 54.1295C410.898 53.0153 410.519 52.1366 410.044 51.4301C409.507 50.7145 408.917 50.1619 408.231 49.7271C407.482 49.2923 406.681 49.0205 405.819 48.8484C404.921 48.7307 403.926 48.622 402.888 48.622C401.391 48.622 400.062 48.7941 398.909 49.0749C397.72 49.3466 396.77 49.8449 396.039 50.5967L396.03 50.6058C395.238 51.3576 394.648 52.4537 394.208 53.8668C393.768 55.3252 393.548 57.1459 393.548 59.4376C393.548 61.6751 393.777 63.4867 394.208 64.8274C394.648 66.1771 395.238 67.2188 396.03 67.9797L396.039 67.9887C396.77 68.7406 397.72 69.2297 398.909 69.5105C400.062 69.7913 401.382 69.9091 402.888 69.9091C404.005 69.9091 405 69.8548 405.986 69.6826C406.91 69.5196 407.711 69.2388 408.46 68.804C409.146 68.3692 409.727 67.8257 410.264 67.0557C410.731 66.3492 411.109 65.4162 411.329 64.2386Z" fill="white"/>
<path fill-rule="evenodd" clip-rule="evenodd" d="M250.446 46.0406C248.113 44.3558 244.874 43.5405 240.834 43.5405C238.897 43.5405 237.128 43.7126 235.631 44.075C234.073 44.4283 232.735 45.0261 231.626 45.8142L231.617 45.8232C230.499 46.6747 229.619 47.7527 228.924 49.0752C228.22 50.4068 227.762 52.0735 227.533 54.021L227.489 54.4287H232.982L233.026 54.1207C233.193 52.9884 233.457 52.1097 233.88 51.4122L233.897 51.3941C234.267 50.6876 234.733 50.1531 235.358 49.7274C235.983 49.3016 236.723 49.0208 237.638 48.8578C238.527 48.74 239.636 48.6313 240.851 48.6313C243.642 48.6313 245.517 49.1476 246.67 50.0082C247.788 50.8416 248.386 52.2728 248.386 54.4106V56.4577C247.731 56.4497 247.132 56.4062 246.563 56.3648L246.344 56.349H246.309C245.596 56.349 244.874 56.2947 244.143 56.2313H244.108C243.73 56.2313 243.36 56.2222 242.964 56.2041H242.929C242.524 56.186 242.092 56.1769 241.635 56.1769C241.212 56.1769 240.781 56.1679 240.314 56.1498H240.235C239.742 56.1316 239.214 56.1226 238.651 56.1226C236.203 56.1226 234.188 56.4124 232.621 56.9559H232.612C231.063 57.5447 229.83 58.2604 228.941 59.1843C228 60.0992 227.401 61.1319 227.049 62.2279C226.697 63.3149 226.582 64.4019 226.582 65.4165C226.582 67.1194 226.811 68.6322 227.401 69.8641C227.929 71.0689 228.695 72.1015 229.707 72.8352C230.658 73.6233 231.829 74.1668 233.158 74.5201C234.496 74.8824 235.939 75.0002 237.524 75.0002C239.927 75.0002 242.128 74.5835 244.099 73.6324C246.01 72.7084 247.444 71.2681 248.386 69.3387V74.1306H254.046V54.3924C254.037 50.597 252.823 47.7436 250.446 46.0406ZM248.377 63.5957C248.272 64.9454 247.937 66.0324 247.427 66.8296C246.89 67.6539 246.203 68.3061 245.367 68.7318C244.495 69.1757 243.518 69.5108 242.427 69.6829C241.318 69.855 240.27 69.9094 239.152 69.9094C236.688 69.9094 234.91 69.5652 233.809 68.913C232.779 68.3061 232.242 67.1828 232.242 65.344C232.242 64.728 232.295 64.1392 232.498 63.6229L232.515 63.5867C232.656 63.0885 232.999 62.5721 233.572 62.1554L233.589 62.1373C234.091 61.7297 234.918 61.3945 236.036 61.1047C237.137 60.8782 238.686 60.7061 240.578 60.7061C241.115 60.7061 241.67 60.7152 242.26 60.7333H242.339C242.955 60.7514 243.606 60.7605 244.284 60.7605C245.543 60.8148 246.934 60.8692 248.386 60.9235V63.5957H248.377Z" fill="white"/>
<path fill-rule="evenodd" clip-rule="evenodd" d="M184.445 59.1114C186.479 59.3741 188.134 59.9538 189.34 60.9593C190.563 62.0916 191.206 63.7674 191.197 66.0501C191.197 67.2096 190.959 68.2332 190.607 69.1934C190.246 70.1807 189.648 71.0413 188.82 71.775C188.002 72.4996 187.007 73.1066 185.836 73.5232H185.827C184.595 73.949 183.204 74.1211 181.602 74.1211H165.141V44.4097H180.37C182.201 44.4097 183.768 44.6452 185.044 45.0619H185.062C186.329 45.5329 187.333 46.0764 188.16 46.8102C188.979 47.5439 189.586 48.341 189.947 49.274C190.299 50.1799 190.475 51.0948 190.475 52.0731C190.475 54.2199 189.894 55.95 188.794 57.0823L188.785 57.0914C187.711 58.1422 186.268 58.7944 184.445 59.0118V59.1114ZM179.983 49.4824H170.81V56.6928H181.004C182.535 56.6928 183.53 56.3033 184.049 55.6239C184.569 54.8721 184.877 54.0206 184.877 52.9427C184.877 52.4082 184.78 51.9281 184.666 51.4662C184.578 51.1129 184.357 50.823 184.032 50.4879C183.697 50.198 183.204 49.9806 182.535 49.7541C181.893 49.5911 181.021 49.4824 179.983 49.4824ZM180.484 69.0484C182.086 69.0484 183.319 68.7676 184.261 68.2241C185.132 67.7259 185.599 66.8201 185.599 65.407C185.599 64.2656 185.282 63.3688 184.666 62.626C184.093 61.9467 182.887 61.539 180.933 61.539H170.81V69.0484H180.484Z" fill="white"/>
<path d="M201.294 64.4015V44.4097H195.625V74.1211H198.952L216.364 54.3467V74.1211H222.024V44.4097H218.696L201.294 64.4015Z" fill="white"/>
<path fill-rule="evenodd" clip-rule="evenodd" d="M146.269 43.5405C150.309 43.5405 153.549 44.3558 155.881 46.0406C158.249 47.7436 159.464 50.597 159.464 54.3924V74.1215H153.804V69.3297C152.862 71.2591 151.436 72.6994 149.517 73.6233C147.545 74.5744 145.345 74.9911 142.942 74.9911C141.357 74.9911 139.913 74.8734 138.576 74.511C137.246 74.1578 136.076 73.6143 135.125 72.8262C134.113 72.0925 133.347 71.0598 132.819 69.855C132.229 68.6231 132 67.1104 132 65.4074C132 64.3929 132.114 63.3059 132.466 62.2189C132.819 61.1228 133.417 60.0901 134.359 59.1752C135.257 58.2604 136.489 57.5447 138.021 56.9559H138.03C139.597 56.4124 141.612 56.1226 144.059 56.1226C144.623 56.1226 145.151 56.1316 145.644 56.1498H145.723C146.19 56.1679 146.621 56.1769 147.044 56.1769C147.501 56.1769 147.933 56.186 148.338 56.2041H148.373C148.769 56.2222 149.139 56.2313 149.517 56.2313H149.552C150.292 56.2947 151.014 56.349 151.727 56.349H151.762L151.98 56.3648C152.549 56.4062 153.149 56.4497 153.804 56.4577V54.3924C153.804 52.2547 153.205 50.8234 152.087 49.9901C150.934 49.1295 149.059 48.6132 146.269 48.6132C145.054 48.6132 143.945 48.7219 143.056 48.8397C142.132 49.0027 141.401 49.2835 140.776 49.7093C140.151 50.135 139.685 50.6695 139.315 51.376L139.306 51.3851V51.4032C138.892 52.1007 138.62 52.9793 138.452 54.1116L138.408 54.4196H132.915L132.96 54.012C133.188 52.0644 133.646 50.3977 134.35 49.0661C135.046 47.7436 135.926 46.6657 137.044 45.8142L137.053 45.8051C138.162 45.017 139.5 44.4283 141.067 44.075C142.563 43.7126 144.332 43.5405 146.269 43.5405ZM152.853 66.8296C153.364 66.0324 153.689 64.9454 153.804 63.5957H153.813V60.9235C152.36 60.8692 150.961 60.8148 149.711 60.7605C149.033 60.7605 148.382 60.7514 147.765 60.7333H147.686C147.096 60.7152 146.542 60.7061 146.005 60.7061C144.112 60.7061 142.563 60.8782 141.463 61.1047C140.345 61.3945 139.517 61.7297 139.016 62.1373L138.998 62.1554C138.426 62.5721 138.083 63.0885 137.942 63.5867L137.924 63.6229C137.722 64.1392 137.669 64.728 137.669 65.344C137.669 67.1828 138.206 68.3061 139.236 68.913C140.336 69.5652 142.114 69.9094 144.579 69.9094C145.697 69.9094 146.744 69.855 147.853 69.6829C148.945 69.5108 149.922 69.1757 150.793 68.7318C151.63 68.3061 152.325 67.6539 152.853 66.8296Z" fill="white"/>
<path d="M330.965 64.4015V44.4097H325.305V74.1211H328.624L346.035 54.3467V74.1211H351.695V44.4097H348.368L330.965 64.4015Z" fill="white"/>
</svg>
